<svg width="354" height="318" viewBox="0 0 354 318" fill="none" xmlns="http://www.w3.org/2000/svg">
<path d="M20.2563 271.774C43.5579 242.756 65.7982 215.029 87.0696 188.549C64.6908 213.968 41.4815 240.357 17.4416 267.714C18.3644 269.052 19.3334 270.436 20.3024 271.82L20.2563 271.774Z" fill="#D0D8EF"/>
<path d="M0.138425 204.234C23.4862 190.302 47.3415 176.093 71.7044 161.514C47.2031 174.616 23.44 187.349 0.322993 199.713C0.276851 201.235 0.230709 202.712 0.138425 204.234Z" fill="#D0D8EF"/>
<path d="M16.8879 137.986C35.2985 135.126 54.9549 132.081 76.0417 128.852C55.5547 130.697 36.5443 132.404 18.872 133.972C18.226 135.31 17.5339 136.648 16.8879 137.986Z" fill="#D0D8EF"/>
<path d="M55.647 81.6106C67.7362 86.5008 80.9789 91.8985 95.6058 97.8036C82.1324 90.6528 69.9048 84.1941 58.7385 78.3351C57.7234 79.4423 56.6621 80.5034 55.647 81.6106Z" fill="#D0D8EF"/>
<path d="M108.618 37.7374C113.693 48.4866 119.23 60.343 125.367 73.4449C120.661 59.5125 116.37 46.8719 112.494 35.3846C111.202 36.1689 109.91 36.9993 108.618 37.7835V37.7374Z" fill="#D0D8EF"/>
<path d="M172.155 8.76541C168.602 24.3125 164.819 41.1513 160.666 59.328C166.387 40.7361 171.694 23.4821 176.631 7.47367C175.154 7.88887 173.632 8.30408 172.155 8.76541Z" fill="#D0D8EF"/>
<path d="M242.706 0.322936C227.664 19.1916 212.022 38.7985 195.734 59.1896C213.498 39.0753 230.709 19.6068 247.412 0.73814C245.844 0.599739 244.275 0.461338 242.706 0.322936Z" fill="#D0D8EF"/>
<path d="M311.042 23.5282C280.865 41.4742 251.381 59.0051 222.634 76.1207C252.396 60.1123 283.172 43.5964 314.964 26.4808C313.626 25.4658 312.334 24.497 311.042 23.5282Z" fill="#D0D8EF"/>
<path d="M352.57 91.8062C307.904 98.4033 267.576 104.401 230.94 109.844C267.484 106.292 308.043 102.371 353.354 97.9881C353.077 95.9121 352.8 93.8822 352.57 91.8062Z" fill="#D0D8EF"/>
<path d="M326.13 200.128C282.065 181.536 244.69 165.759 212.621 152.241C243.214 167.835 278.973 186.011 321.285 207.602C322.9 205.111 324.515 202.619 326.13 200.128Z" fill="#D0D8EF"/>
<path d="M219.312 294.656C200.394 252.536 184.521 217.198 171.002 187.072C182.168 218.397 195.226 255.074 210.73 298.624C213.59 297.332 216.405 295.994 219.266 294.702L219.312 294.656Z" fill="#D0D8EF"/>
<path d="M95.5597 315.601C105.803 272.281 114.893 233.99 123.014 199.805C112.863 233.852 101.512 271.774 88.823 314.263C91.0839 314.725 93.2987 315.14 95.6058 315.601H95.5597Z" fill="#D0D8EF"/>
<path d="M28.3772 281.785C50.6176 250.045 71.6582 220.15 91.4992 191.87C70.3663 219.181 48.2182 247.831 24.9166 277.956C26.0701 279.201 27.2237 280.493 28.3772 281.785Z" fill="#D0D8EF"/>
<path d="M0.230709 215.86C24.086 199.667 48.1721 183.289 72.5811 166.727C47.8952 181.859 23.7169 196.76 0 211.293C0.0922836 212.815 0.138425 214.337 0.230709 215.86Z" fill="#D0D8EF"/>
<path d="M12.1353 148.505C31.4687 144.076 52.048 139.37 73.9653 134.388C52.5555 137.94 32.5761 141.262 13.8425 144.353C13.2427 145.737 12.689 147.121 12.0892 148.505H12.1353Z" fill="#D0D8EF"/>
<path d="M47.9413 90.2376C61.1379 94.0206 75.5341 98.1726 91.3608 102.694C76.5954 96.8809 63.122 91.6216 50.8944 86.8237C49.9254 87.9771 48.9565 89.0843 47.9413 90.2376Z" fill="#D0D8EF"/>
<path d="M98.8358 44.15C105.111 54.0226 112.078 64.9102 119.738 76.905C113.463 63.9414 107.787 52.2234 102.619 41.5665C101.374 42.3969 100.128 43.2735 98.8819 44.1039L98.8358 44.15Z" fill="#D0D8EF"/>
<path d="M160.804 12.41C158.866 27.2189 156.744 43.3196 154.437 60.8504C158.313 42.8583 161.865 26.2501 165.188 10.9337C163.711 11.4412 162.281 11.9025 160.804 12.41Z" fill="#D0D8EF"/>
<path d="M230.524 0C217.651 18.4996 204.131 37.8758 190.012 58.1747C205.7 38.0142 220.789 18.6842 235.231 0.0461338C233.662 0.0461338 232.093 0.0461338 230.524 0Z" fill="#D0D8EF"/>
<path d="M300.337 16.9311C272.837 35.5691 245.705 53.9765 218.943 72.1071C246.859 54.8992 275.374 37.3222 304.536 19.3762C303.152 18.5458 301.721 17.7154 300.383 16.885L300.337 16.9311Z" fill="#D0D8EF"/>
<path d="M348.878 77.0895C306.105 86.5931 266.977 95.3123 231.032 103.34C267.115 97.1116 306.751 90.2838 350.401 82.764C349.893 80.8725 349.386 78.981 348.878 77.0895Z" fill="#D0D8EF"/>
<path d="M336.328 181.075C290.417 167.281 251.196 155.471 217.282 145.275C249.904 157.547 287.833 171.802 332.452 188.595C333.744 186.057 335.036 183.566 336.328 181.029V181.075Z" fill="#D0D8EF"/>
<path d="M240.353 283.123C216.174 243.679 195.918 210.647 178.707 182.551C193.611 212.031 211.145 246.631 232.047 287.921C234.816 286.306 237.584 284.738 240.353 283.123Z" fill="#D0D8EF"/>
<path d="M113.555 317.723C119.876 273.066 125.46 233.99 130.351 199.575C123.245 234.129 115.262 273.02 106.218 317.17C108.664 317.354 111.109 317.539 113.555 317.723Z" fill="#D0D8EF"/>
<path d="M38.5746 290.966C59.4307 256.55 78.8102 224.533 96.8978 194.638C77.3337 223.703 56.5699 254.612 34.4218 287.459C35.8061 288.613 37.1442 289.766 38.5284 290.966H38.5746Z" fill="#D0D8EF"/>
<path d="M1.75339 227.439C25.9317 208.894 50.1561 190.302 74.4267 171.664C49.7409 188.918 25.2857 205.987 1.1074 222.872C1.33811 224.395 1.56882 225.871 1.79953 227.439H1.75339Z" fill="#D0D8EF"/>
<path d="M8.25938 159.208C28.5618 153.118 49.9716 146.659 72.6272 139.878C50.3407 145.229 29.4385 150.258 9.73592 154.963C9.22836 156.393 8.76694 157.777 8.25938 159.208Z" fill="#D0D8EF"/>
<path d="M40.8816 99.1414C55.1395 101.725 70.6893 104.585 87.7156 107.676C71.6582 103.293 57.0313 99.2798 43.6502 95.5891C42.7273 96.7886 41.8045 97.942 40.8816 99.1414Z" fill="#D0D8EF"/>
<path d="M89.6535 50.8855C97.1747 59.8355 105.434 69.7081 114.57 80.5957C106.772 68.6932 99.6663 57.944 93.2526 48.1636C92.0529 49.0863 90.8532 49.9629 89.6074 50.8855H89.6535Z" fill="#D0D8EF"/>
<path d="M149.961 16.5159C149.546 30.5867 149.084 45.9031 148.577 62.6958C150.607 45.3956 152.499 29.4795 154.252 14.8551C152.822 15.4087 151.391 15.9623 149.961 16.562V16.5159Z" fill="#D0D8EF"/>
<path d="M218.758 0.322936C207.961 18.3612 196.564 37.4145 184.475 57.4827C198.087 37.4145 211.099 18.3151 223.465 0.0922675C221.896 0.184535 220.327 0.230669 218.758 0.322936Z" fill="#D0D8EF"/>
<path d="M289.586 11.4412C264.762 30.4944 239.937 49.5477 215.205 68.5548C241.183 50.3781 267.484 32.0168 293.969 13.4711C292.493 12.7791 291.063 12.1332 289.586 11.4873V11.4412Z" fill="#D0D8EF"/>
<path d="M344.08 63.5723C303.475 75.5671 265.823 86.6853 230.847 97.0654C266.192 88.3923 304.536 78.981 346.294 68.7393C345.556 67.0323 344.818 65.3254 344.126 63.6184L344.08 63.5723Z" fill="#D0D8EF"/>
<path d="M344.725 161.883C297.661 152.749 257.102 144.906 221.804 138.078C256.087 147.028 295.677 157.362 341.911 169.403C342.88 166.912 343.803 164.375 344.772 161.929L344.725 161.883Z" fill="#D0D8EF"/>
<path d="M261.163 269.467C231.863 233.298 207.361 203.035 186.597 177.384C205.193 204.603 227.064 236.712 253.226 275.049C255.856 273.204 258.486 271.313 261.117 269.467H261.163Z" fill="#D0D8EF"/>
<path d="M133.396 317.723C135.288 272.235 136.949 232.883 138.379 198.467C134.642 233.16 130.397 272.651 125.552 318C128.136 317.908 130.766 317.815 133.396 317.723Z" fill="#D0D8EF"/>
<path d="M154.114 315.463C151.161 269.79 148.669 230.623 146.5 196.668C146.316 231.13 146.131 270.713 145.9 316.616C148.623 316.247 151.391 315.832 154.16 315.463H154.114Z" fill="#D0D8EF"/>
<path d="M50.2484 299.085C69.2127 262.132 86.6082 228.131 102.666 196.807C84.9932 227.486 65.9367 260.471 45.4497 295.994C47.0185 297.009 48.6335 298.024 50.2484 299.085Z" fill="#D0D8EF"/>
<path d="M4.33733 238.881C28.7002 217.844 52.7862 196.991 76.6877 176.323C52.2325 195.653 27.7312 214.983 3.18379 234.359C3.55292 235.836 3.9682 237.358 4.33733 238.881Z" fill="#D0D8EF"/>
<path d="M4.98332 170.141C26.1624 162.252 48.3105 153.994 71.6121 145.321C48.5873 152.518 26.8084 159.346 6.183 165.805C5.76773 167.235 5.39859 168.711 4.98332 170.141Z" fill="#D0D8EF"/>
<path d="M34.1449 108.368C49.464 109.706 66.1212 111.182 84.255 112.797C66.9979 109.844 51.2174 107.169 36.7289 104.724C35.8522 105.923 35.0216 107.169 34.1449 108.414V108.368Z" fill="#D0D8EF"/>
<path d="M80.6559 57.9901C89.3767 65.9713 98.928 74.7828 109.495 84.517C100.174 73.7217 91.7761 63.9875 84.1627 55.1298C83.0091 56.0987 81.8094 57.0213 80.6559 57.9901Z" fill="#D0D8EF"/>
<path d="M139.256 21.1293C140.271 34.4158 141.425 48.9479 142.67 64.8641C142.947 48.302 143.224 33.1702 143.455 19.2378C142.071 19.8837 140.64 20.4834 139.256 21.1293Z" fill="#D0D8EF"/>
<path d="M206.9 1.43015C198.041 18.9148 188.674 37.5067 178.661 57.2981C190.243 37.4606 201.178 18.6842 211.56 0.876541C209.991 1.06108 208.469 1.24561 206.9 1.38401V1.43015Z" fill="#D0D8EF"/>
<path d="M278.189 7.1046C255.949 26.3885 233.478 45.8108 210.822 65.4177C234.816 46.4567 258.763 27.5419 282.711 8.62701C281.188 8.11954 279.666 7.56594 278.189 7.05846V7.1046Z" fill="#D0D8EF"/>
<path d="M337.527 51.4853C299.368 65.5561 263.516 78.7503 229.74 91.1603C264.023 80.2727 300.798 68.6009 340.25 56.0525C339.327 54.5301 338.404 53.0077 337.527 51.4853Z" fill="#D0D8EF"/>
<path d="M350.216 143.107C302.829 138.447 261.532 134.434 225.264 130.835C260.794 136.464 301.398 142.922 348.371 150.396C349.017 147.951 349.617 145.506 350.216 143.107Z" fill="#D0D8EF"/>
<path d="M280.312 253.966C246.397 221.673 218.02 194.638 193.888 171.664C215.944 196.345 241.922 225.41 272.975 260.194C275.42 258.118 277.866 255.996 280.312 253.92V253.966Z" fill="#D0D8EF"/>
<path d="M175.385 311.172C167.31 265.915 160.435 227.439 154.529 194.362C158.036 228.224 162.142 267.391 166.895 313.248C169.71 312.556 172.57 311.864 175.385 311.172Z" fill="#D0D8EF"/>
<path d="M63.4911 306.328C80.1022 266.93 95.1444 231.222 108.849 198.652C93.3449 230.715 76.457 265.592 58.0003 303.745C59.7998 304.621 61.6455 305.452 63.4911 306.328Z" fill="#D0D8EF"/>
<path d="M8.02868 250.414C32.2993 226.747 56.0623 203.634 79.3639 180.937C55.324 202.343 31.0073 224.026 6.36757 245.985C6.92127 247.461 7.47497 248.938 8.02868 250.414Z" fill="#D0D8EF"/>
<path d="M2.35323 181.49C24.3167 171.71 47.2031 161.56 70.9661 150.95C47.3415 160.084 24.7782 168.757 3.22993 177.061C2.95308 178.538 2.63008 180.014 2.35323 181.49Z" fill="#D0D8EF"/>
<path d="M27.7312 118.056C44.1116 118.056 61.7839 118.149 80.9789 118.195C62.5683 116.765 45.6804 115.473 30.1306 114.273C29.3462 115.519 28.5156 116.811 27.7312 118.056Z" fill="#D0D8EF"/>
<path d="M71.8428 65.6483C81.671 72.6607 92.5143 80.365 104.465 88.8998C93.714 79.2578 84.0242 70.5385 75.2111 62.6496C74.1037 63.6646 72.9502 64.6334 71.8428 65.6483Z" fill="#D0D8EF"/>
<path d="M128.643 26.3424C131.043 38.7985 133.719 52.5002 136.626 67.5398C135.196 51.7621 133.904 37.4145 132.704 24.2664C131.32 24.9584 129.982 25.6504 128.597 26.3424H128.643Z" fill="#D0D8EF"/>
<path d="M195.041 3.36776C188.074 20.2527 180.599 38.3372 172.57 57.7133C182.168 38.1526 191.166 19.8375 199.609 2.58349C198.087 2.86029 196.518 3.09096 194.995 3.36776H195.041Z" fill="#D0D8EF"/>
<path d="M266.423 4.01364C246.674 23.2975 226.51 42.9505 205.977 63.0187C227.894 43.5041 249.581 24.2202 271.037 5.16698C269.468 4.79791 267.946 4.38271 266.423 4.01364Z" fill="#D0D8EF"/>
<path d="M329.545 40.9668C293.969 56.6523 260.101 71.5996 227.848 85.8549C260.84 73.0297 295.769 59.4203 332.775 44.9804C331.714 43.6425 330.606 42.2585 329.545 40.9668Z" fill="#D0D8EF"/>
<path d="M353.123 125.253C306.059 124.746 264.623 124.284 227.802 123.869C264.07 126.314 305.182 129.082 352.2 132.265C352.523 129.913 352.8 127.56 353.123 125.253Z" fill="#D0D8EF"/>
<path d="M297.522 237.312C259.502 209.263 227.664 185.781 200.532 165.759C225.772 187.626 255.441 213.369 290.924 244.14C293.139 241.879 295.354 239.573 297.522 237.312Z" fill="#D0D8EF"/>
<path d="M197.441 304.021C183.967 259.964 172.617 222.78 162.881 190.994C170.217 223.795 178.753 261.994 188.858 307.02C191.719 306.005 194.58 305.036 197.487 304.021H197.441Z" fill="#D0D8EF"/>
<path d="M78.8102 311.726C92.5143 270.205 104.742 233.022 115.816 199.529C102.804 232.699 88.5 269.283 72.6733 309.742C74.7036 310.388 76.7338 311.08 78.8102 311.772V311.726Z" fill="#D0D8EF"/>
<path d="M13.4734 261.255C37.421 234.959 60.5842 209.493 82.963 184.858C59.6152 208.294 35.7138 232.33 11.2125 256.965C11.9507 258.395 12.689 259.825 13.4734 261.255Z" fill="#D0D8EF"/>
<path d="M0.830553 192.747C23.5323 180.937 46.9724 168.803 71.1045 156.255C46.9724 167.327 23.7169 177.984 1.33811 188.272C1.15355 189.748 0.968978 191.271 0.784411 192.747H0.830553Z" fill="#D0D8EF"/>
<path d="M22.1019 127.837C39.4974 126.453 58.1848 125.022 78.3949 123.408C58.9231 123.592 40.9278 123.731 24.3167 123.915C23.5785 125.207 22.8402 126.499 22.1019 127.837Z" fill="#D0D8EF"/>
<path d="M63.6296 73.3988C74.6113 79.3962 86.6543 85.9472 99.9893 93.1902C87.854 84.7939 76.8723 77.1818 66.8595 70.2617C65.7982 71.3228 64.6908 72.3377 63.6296 73.3988Z" fill="#D0D8EF"/>
<path d="M118.538 31.7862C122.322 43.4119 126.429 56.1909 130.997 70.2617C127.905 55.4066 125.09 41.8895 122.507 29.5256C121.168 30.2637 119.83 31.0019 118.538 31.74V31.7862Z" fill="#D0D8EF"/>
<path d="M183.552 5.72059C178.338 21.9597 172.709 39.4444 166.664 58.2669C174.278 39.1676 181.43 21.3138 188.074 4.65951C186.551 5.02858 185.029 5.35152 183.552 5.72059Z" fill="#D0D8EF"/>
<path d="M254.657 1.66082C237.307 20.8063 219.45 40.5054 201.04 60.8043C220.881 40.9207 240.307 21.4522 259.317 2.39896C257.748 2.12215 256.179 1.89148 254.657 1.66082Z" fill="#D0D8EF"/>
<path d="M320.824 31.5094C287.925 48.4866 256.179 64.9102 225.587 80.6879C257.056 66.1558 289.955 50.9317 324.423 35.0155C323.223 33.8622 322.024 32.6627 320.824 31.5094Z" fill="#D0D8EF"/>
<path d="M354 107.907C307.904 111.182 266.746 114.089 229.832 116.718C266.469 116.073 307.535 115.334 354 114.55C354 112.336 354 110.121 354 107.953V107.907Z" fill="#D0D8EF"/>
<path d="M313.072 218.997C271.637 195.607 236.754 175.908 206.946 159.069C235.046 177.846 268.038 199.944 307.304 226.194C309.242 223.795 311.134 221.396 313.072 218.997Z" fill="#D0D8EF"/>
</svg>
